<?xml version="1.0" standalone="no"?>
<!DOCTYPE svg PUBLIC "-//W3C//DTD SVG 20010904//EN"
 "http://www.w3.org/TR/2001/REC-SVG-20010904/DTD/svg10.dtd">
<svg version="1.0" xmlns="http://www.w3.org/2000/svg"
 width="256.000000pt" height="256.000000pt" viewBox="0 0 256.000000 256.000000"
 preserveAspectRatio="xMidYMid meet">
<metadata>
Created by potrace 1.14, written by Peter Selinger 2001-2017
</metadata>
<g transform="translate(0.000000,256.000000) scale(0.100000,-0.100000)"
fill="#000000" stroke="none">
<path d="M865 2545 c-88 -26 -143 -74 -185 -159 l-30 -61 0 -235 c-1 -129 -1
-240 -1 -247 1 -9 148 -12 631 -11 l630 0 1 27 c3 125 -1 447 -6 472 -17 76
-89 160 -170 200 l-50 24 -390 1 c-275 1 -402 -2 -430 -11z m149 -291 c10 -9
14 -26 11 -41 -5 -31 -4 -30 -36 -38 -48 -12 -78 44 -43 79 20 20 48 20 68 0z
m600 0 c33 -32 5 -91 -38 -80 -12 3 -24 6 -27 6 -4 0 -10 12 -13 26 -13 49 43
83 78 48z"/>
<path d="M225 1772 c-11 -2 -58 -51 -105 -109 -47 -58 -94 -114 -104 -124 -19
-19 3 -19 1262 -19 l1282 0 -103 125 -102 124 -115 1 c-408 3 -1999 4 -2015 2z"/>
<path d="M0 1409 c0 -17 7 -45 15 -62 25 -50 59 -69 135 -75 l68 -5 0 -157 c0
-174 7 -212 52 -255 l30 -29 0 -408 c0 -224 1 -408 3 -409 20 -6 125 -7 135
-1 10 7 13 91 13 400 l0 392 32 1 c40 1 1598 1 1613 0 8 -1 11 -117 12 -392 0
-215 3 -394 7 -397 10 -10 120 -12 135 -2 10 6 13 88 13 412 l0 403 29 34 c45
51 50 74 50 249 1 109 5 162 12 162 128 6 164 20 190 74 9 19 16 48 16 65 l0
31 -1280 0 -1280 0 0 -31z m796 -308 l-1 -56 -165 -1 c-91 -1 -167 2 -170 6
-3 5 -3 30 -2 57 l4 50 168 0 167 1 -1 -57z"/>
<path d="M639 681 c-4 -73 0 -443 4 -448 9 -8 104 -11 116 -3 10 5 14 141 12
396 l-1 72 -65 -1 c-52 -1 -65 -4 -66 -16z"/>
<path d="M1790 464 c0 -129 3 -235 8 -235 39 -6 107 -3 116 6 7 8 11 83 11
236 l-1 224 -67 1 -67 1 0 -233z"/>
</g>
</svg>
